<svg version="1.1" id="Layer_1" xmlns="http://www.w3.org/2000/svg" xmlns:xlink="http://www.w3.org/1999/xlink" x="0px" y="0px"
	 width="100%" viewBox="0 0 1637 597" enable-background="new 0 0 1637 597" xml:space="preserve">

<path fill="#CE3A87" opacity="1.000000" stroke="none"
	d="
M809.710571,453.468414
	C817.742554,415.590576 825.661438,378.121185 833.578430,340.651367
	C836.090637,328.761810 838.533997,316.857117 841.148987,304.990204
	C841.861694,301.755707 841.135071,300.461212 837.610291,300.395874
	C828.286926,300.223022 818.962463,299.850342 809.656006,299.274261
	C808.121521,299.179260 805.300293,297.184113 805.409424,296.864227
	C806.185547,294.590027 807.219421,290.993317 808.813965,290.628632
	C823.579468,287.251648 838.452271,284.321716 853.346802,281.545654
	C857.694641,280.735291 860.398621,284.188110 859.503296,288.644440
	C857.338440,299.420288 855.137451,310.188934 853.001953,320.970612
	C852.694641,322.522034 852.669312,324.129303 853.632446,326.226685
	C854.857239,324.805084 856.102539,323.400543 857.303650,321.959167
	C871.109802,305.391602 886.369202,290.587463 907.263123,283.316467
	C921.288757,278.435638 935.963623,280.028351 944.608643,290.488831
	C951.178650,298.438568 953.097900,308.112488 953.497620,318.064728
	C954.796082,350.394409 942.946594,378.370728 924.200745,403.814087
	C911.265015,421.371552 895.550842,435.795319 875.026978,444.253204
	C859.938782,450.471039 844.817017,452.176239 829.582031,444.742889
	C829.173645,444.543610 828.633728,444.613953 827.534851,444.486725
	C826.987000,446.472748 826.313477,448.459503 825.895996,450.498657
	C821.988159,469.585938 818.209595,488.700287 814.176819,507.760956
	C813.353088,511.654022 814.008728,513.198120 818.286804,513.257935
	C826.110474,513.367432 833.941711,513.807800 841.734985,514.501221
	C843.325012,514.642700 846.196472,516.957031 846.025818,517.501282
	C845.193054,520.158203 846.686890,524.804077 841.882874,524.817932
	C817.223206,524.889038 792.562927,524.765198 767.902954,524.684448
	C767.630554,524.683533 767.359192,524.349792 767.089905,524.167480
	C766.676575,515.801941 767.701172,514.622681 775.345032,514.247498
	C781.167358,513.961731 786.979004,513.373718 792.802856,513.237122
	C796.101440,513.159729 797.492676,511.735657 798.131042,508.626770
	C801.881042,490.362000 805.760681,472.123810 809.710571,453.468414
M881.248657,429.925507
	C884.477478,427.879700 887.886230,426.067810 890.903381,423.746826
	C902.684570,414.683838 911.801086,403.318817 919.147827,390.457489
	C931.746582,368.401886 938.613281,344.991638 936.379883,319.328522
	C935.184814,305.596405 928.871826,296.642151 918.045410,295.184845
	C910.117737,294.117767 902.469360,296.391357 895.441833,300.098328
	C877.205566,309.717712 863.955994,324.960968 850.861633,340.307007
	C849.660889,341.714172 849.228577,343.917236 848.811523,345.831757
	C843.180176,371.682526 837.659241,397.557404 831.981506,423.397919
	C831.202209,426.944763 832.181641,428.806122 835.449463,430.447937
	C850.582275,438.050873 865.565918,437.664825 881.248657,429.925507
z"/>
<path fill="#CE3A86" opacity="1.000000" stroke="none"
	d="
M1090.614746,419.946075
	C1090.082520,424.787659 1088.458984,429.765076 1093.082886,432.753754
	C1097.666626,435.716461 1102.683228,434.496704 1107.396118,432.270935
	C1117.384766,427.553589 1123.956421,419.057281 1130.894653,410.979126
	C1132.708618,408.867249 1134.175415,406.719604 1137.351562,409.346283
	C1139.787598,411.360718 1140.140869,413.026001 1138.217529,415.598511
	C1130.699341,425.654266 1122.550171,435.025330 1112.037476,442.151947
	C1105.002686,446.920837 1097.297852,449.072662 1088.914917,448.709198
	C1079.264160,448.290741 1072.532471,441.882751 1073.332153,432.281250
	C1074.154663,422.403473 1076.341187,412.591034 1078.526855,402.884216
	C1084.488525,376.406464 1090.875122,350.024353 1096.817627,323.542450
	C1097.934692,318.564453 1098.200439,313.292450 1098.106079,308.170013
	C1097.969604,300.773010 1094.144287,296.898804 1086.875488,295.849792
	C1075.600952,294.222687 1065.514771,298.088440 1056.807129,304.373962
	C1044.422363,313.313812 1032.806763,323.330811 1021.039734,333.101196
	C1019.419312,334.446686 1018.256165,336.904388 1017.825745,339.037720
	C1010.978821,372.976410 1004.254944,406.940125 997.613525,440.919769
	C997.046753,443.819397 995.786194,445.138702 992.879517,445.718506
	C980.436157,448.200684 979.341797,447.173492 981.842346,435.010284
	C993.576538,377.932800 1005.316162,320.856384 1016.977661,263.764038
	C1019.776489,250.061615 1022.179382,236.278244 1024.985840,222.577438
	C1025.909180,218.069672 1024.788574,216.190582 1019.959412,216.120605
	C1011.305847,215.995209 1002.651917,215.502716 994.016479,214.900330
	C992.621338,214.803009 990.066040,212.925476 990.179932,212.585831
	C990.930664,210.346176 991.885132,206.862396 993.475037,206.442596
	C1000.533813,204.578781 1007.823853,203.579514 1015.040955,202.329651
	C1021.764465,201.165237 1028.499512,200.066162 1035.233154,198.961731
	C1044.305420,197.473785 1046.092407,199.426865 1044.236572,208.284775
	C1036.931885,243.149887 1029.701416,278.030548 1022.446960,312.906128
	C1021.780334,316.110992 1021.139038,319.321136 1021.567383,323.164764
	C1022.798767,321.971863 1024.083130,320.828613 1025.253296,319.578430
	C1037.637939,306.345947 1051.302368,294.770844 1067.758301,286.836975
	C1078.051147,281.874420 1088.716309,279.243256 1100.160156,282.121185
	C1108.735596,284.277832 1113.456909,290.081177 1114.939819,298.501770
	C1116.931030,309.807922 1113.969727,320.680695 1111.419556,331.541443
	C1104.531372,360.875824 1097.586670,390.196930 1090.614746,419.946075
z"/>
<path fill="#0C0C0C" opacity="1.000000" stroke="none"
	d="
M688.178101,413.289490
	C684.455444,379.578888 680.813354,346.327087 677.014221,313.093231
	C676.621582,309.658997 675.545471,306.239197 674.347412,302.973785
	C671.707275,295.777771 665.910095,293.101562 659.835510,297.745483
	C654.065063,302.156921 649.824890,308.589020 645.009644,314.216370
	C643.943359,315.462433 643.583435,317.453033 642.354309,318.377716
	C641.270203,319.193329 638.938904,319.710144 638.032043,319.087158
	C636.633484,318.126404 634.761597,315.496948 635.198486,314.582703
	C640.161072,304.198059 645.545776,294.027557 654.951294,286.757355
	C661.057373,282.037415 667.932556,280.147095 675.575439,280.991638
	C683.170959,281.830902 687.762756,286.665192 689.731934,293.400391
	C692.103210,301.510986 694.234802,309.868927 694.963379,318.250763
	C697.631409,348.941162 699.703064,379.683777 701.929382,410.411804
	C702.446777,417.553406 702.669861,424.716095 703.079651,431.866150
	C703.130737,432.756927 703.498169,433.629608 703.907837,435.264374
	C705.038147,433.851013 705.844238,433.103241 706.338745,432.187225
	C725.022949,397.576874 743.064148,362.652863 756.612976,325.629547
	C760.844360,314.066864 764.496155,302.292938 768.519653,290.652466
	C769.219238,288.628479 770.322937,286.708923 771.461670,284.879059
	C774.152588,280.555084 778.019348,279.008789 781.994934,280.487976
	C786.234375,282.065308 788.751221,286.153137 787.156860,291.029785
	C784.216003,300.024261 781.227112,309.118683 777.048279,317.573456
	C755.124939,361.929352 732.755920,406.076080 705.909485,447.731445
	C690.799622,471.176239 674.183838,493.490723 652.202942,511.141418
	C641.352844,519.854065 629.447266,526.638367 614.929565,525.528625
	C610.196655,525.166931 605.274170,523.219788 601.094177,520.843933
	C596.981506,518.506409 594.178284,514.364990 595.505005,509.061676
	C596.698303,504.291779 601.645691,501.173706 607.434692,500.806854
	C614.865112,500.336029 621.056396,503.010925 626.642578,507.694611
	C635.069763,514.760254 632.706299,513.803528 640.349121,508.615326
	C660.052612,495.239990 674.695618,476.759613 689.262390,458.305084
	C690.264954,457.034882 690.593323,454.871429 690.507019,453.160095
	C689.844177,440.019379 689.000916,426.887817 688.178101,413.289490
z"/>
<path fill="#CE3986" opacity="1.000000" stroke="none"
	d="
M1494.628418,306.632812
	C1504.613037,297.676910 1514.848999,289.685211 1527.276489,285.152954
	C1542.211548,279.706268 1557.053711,276.874603 1571.055664,289.233612
	C1573.429810,286.240723 1575.679688,283.647125 1577.643433,280.852448
	C1579.206177,278.628143 1580.623657,277.031738 1583.728760,278.272949
	C1587.062256,279.605560 1585.864624,281.992737 1585.393677,284.125977
	C1576.097290,326.229919 1566.720093,368.316071 1557.470581,410.430237
	C1556.439575,415.124298 1555.798828,419.947052 1555.477295,424.743622
	C1555.017578,431.607239 1558.138184,434.586090 1565.053589,434.314117
	C1571.912964,434.044312 1577.598633,430.829254 1582.349731,426.260834
	C1587.376953,421.427032 1591.891724,416.059235 1596.608765,410.905121
	C1597.700073,409.712738 1598.704956,408.441254 1599.681274,407.286926
	C1607.082031,411.147308 1607.157349,411.504639 1602.788086,417.554047
	C1595.528076,427.605927 1587.906250,437.533600 1576.728638,443.318695
	C1570.874023,446.348785 1563.977295,448.351715 1557.413696,448.798096
	C1547.206787,449.492279 1540.248413,442.537628 1540.167114,432.278168
	C1540.112183,425.357361 1541.501099,418.421783 1542.305420,411.499939
	C1542.491943,409.893341 1542.928101,408.315765 1542.413452,406.276581
	C1538.952271,410.382080 1535.540894,414.530823 1532.020142,418.584564
	C1523.349243,428.568176 1514.077515,437.889008 1502.083496,443.916901
	C1490.945435,449.514526 1479.318115,451.925446 1467.404785,446.814178
	C1453.984253,441.056305 1449.475586,429.209167 1447.980835,415.867096
	C1444.756104,387.082520 1454.321655,361.500702 1469.371704,337.897003
	C1476.469238,326.765778 1485.953613,317.156555 1494.628418,306.632812
M1470.058472,426.279694
	C1474.275024,432.552704 1480.444458,434.768097 1487.687622,434.830505
	C1495.291382,434.895996 1502.098999,432.370087 1508.365845,428.329132
	C1522.876099,418.972595 1533.547974,405.663177 1544.563599,392.737122
	C1545.467041,391.677124 1545.816895,390.035767 1546.132202,388.600372
	C1552.310791,360.465942 1558.401245,332.312012 1564.654297,304.194244
	C1565.327026,301.170074 1564.525879,299.576935 1561.901245,298.199310
	C1555.219482,294.691956 1548.261963,293.209778 1540.692749,293.994690
	C1527.731079,295.338776 1516.754395,301.033630 1507.171387,309.397797
	C1481.195923,332.069519 1467.102539,360.929169 1464.198608,395.112366
	C1463.310913,405.562805 1464.114136,416.139465 1470.058472,426.279694
z"/>
<path fill="#0A0A0A" opacity="1.000000" stroke="none"
	d="
M457.724426,408.860474
	C446.206116,426.489838 431.978638,440.490234 411.666351,446.522491
	C393.929749,451.789764 376.702240,450.560272 361.218262,439.204895
	C349.002960,430.246674 343.008209,417.429382 341.405701,402.978058
	C336.862701,362.010040 348.609314,326.383087 379.466431,298.444397
	C396.933411,282.629395 417.981384,276.648834 441.186493,283.447174
	C462.210907,289.606598 472.126617,305.667725 475.183899,326.173920
	C479.575531,355.630310 472.975464,383.042511 457.724426,408.860474
M362.267517,351.009949
	C361.354736,354.897430 360.296753,358.757385 359.553864,362.677094
	C356.026978,381.285828 355.421082,399.828705 362.903748,417.675995
	C368.681854,431.457520 379.473022,438.601410 394.497955,438.824280
	C412.057587,439.084839 424.921478,430.020813 435.189728,416.962036
	C452.561676,394.869049 459.846741,369.266632 459.549957,341.436432
	C459.426788,329.884277 457.737946,318.516327 452.009064,308.138062
	C447.210480,299.445099 439.988373,294.001404 430.278412,292.032562
	C416.022400,289.141937 403.578583,293.402405 392.541382,302.272644
	C377.003510,314.759918 368.399933,331.666595 362.267517,351.009949
z"/>
<path fill="#CE3986" opacity="1.000000" stroke="none"
	d="
M1301.712891,429.876770
	C1308.669800,422.945648 1315.400391,416.296570 1321.929443,409.454987
	C1323.568237,407.737549 1324.738037,406.762329 1326.839600,408.589111
	C1328.726562,410.229401 1331.038330,411.368073 1328.801025,414.565826
	C1320.723633,426.110413 1311.989502,437.143555 1299.407593,443.926849
	C1294.331177,446.663696 1288.151123,448.132629 1282.349854,448.581329
	C1270.883911,449.468201 1263.340454,442.373322 1263.752319,430.872070
	C1264.077637,421.786835 1265.546753,412.665833 1267.322266,403.722382
	C1275.230591,363.888855 1283.480713,324.123383 1291.506104,284.312927
	C1295.617676,263.916351 1299.526001,243.478699 1303.505981,223.055710
	C1304.712769,216.863480 1304.504395,216.504349 1298.235229,216.147247
	C1289.761719,215.664536 1281.269409,215.483826 1272.803955,214.902588
	C1271.248291,214.795792 1268.575317,213.495972 1268.501587,212.579346
	C1268.288940,209.933228 1268.219849,206.756561 1272.223511,206.097137
	C1279.281128,204.934708 1286.302490,203.554642 1293.352173,202.341736
	C1300.569336,201.100006 1307.797607,199.922104 1315.029175,198.766983
	C1321.953247,197.661026 1324.326904,200.045609 1322.954224,206.803238
	C1313.716797,252.282959 1304.430542,297.752808 1295.207397,343.235413
	C1290.512451,366.387970 1285.889160,389.555206 1281.307251,412.730347
	C1280.728394,415.658600 1280.635132,418.680389 1280.254883,421.650909
	C1278.970703,431.682312 1284.022217,436.313965 1293.815796,433.737549
	C1296.483276,433.035736 1298.887085,431.331604 1301.712891,429.876770
z"/>
<path fill="#0A0A0A" opacity="1.000000" stroke="none"
	d="
M280.422668,301.636902
	C272.378204,339.165558 264.413727,376.263519 256.508850,413.374207
	C255.851440,416.460510 255.472855,419.621002 255.179230,422.767029
	C254.473923,430.324585 258.885406,435.334259 266.385101,434.380707
	C270.655579,433.837738 275.404266,432.240509 278.664001,429.565826
	C285.441833,424.004303 291.397217,417.434998 297.632294,411.221313
	C299.138672,409.720062 300.417786,407.990753 301.724213,406.457031
	C308.820160,409.664368 308.915466,410.132568 304.558929,416.033112
	C296.896362,426.411438 288.560059,436.086700 277.359680,442.885803
	C270.332153,447.151794 262.791870,449.446289 254.532532,448.813629
	C245.240677,448.101837 238.611572,442.454498 239.014679,433.216064
	C239.510986,421.842255 241.402084,410.438202 243.686203,399.250549
	C250.444031,366.150696 257.695831,333.151733 264.731354,300.108398
	C264.969513,298.989807 264.960114,297.818512 265.125488,296.029602
	C252.903961,296.029602 240.893967,296.029602 228.947021,296.029602
	C228.380844,287.733368 229.095245,286.770081 236.518463,286.187042
	C245.815567,285.456848 255.119324,284.759430 264.433075,284.321228
	C267.802429,284.162720 269.346069,282.970337 270.268616,279.626190
	C273.366211,268.398193 277.218231,257.368652 280.034607,246.076828
	C281.443237,240.429092 283.974854,238.124710 289.612244,239.168594
	C290.561829,239.344421 291.549896,239.312485 293.426971,239.436417
	C290.326538,254.433441 287.291809,269.112488 284.123352,284.438599
	C299.169952,284.438599 313.581116,284.438599 328.872467,284.438599
	C328.085144,288.438324 327.758789,291.881226 326.586090,295.006531
	C326.216400,295.991760 323.577362,296.582153 321.979523,296.576813
	C310.318481,296.537903 298.650543,296.490814 287.001617,296.024963
	C282.858887,295.859283 280.630859,296.905701 280.422668,301.636902
z"/>
<path fill="#0A0A0A" opacity="1.000000" stroke="none"
	d="
M184.484924,282.806580
	C196.003159,285.936432 204.241287,292.300537 208.341873,303.372131
	C210.734390,309.831940 205.367416,316.521332 198.772018,314.604492
	C195.452621,313.639771 191.990295,310.913757 190.046783,308.010681
	C187.319763,303.937195 186.152603,298.851990 183.887817,294.419434
	C183.059189,292.797638 181.135498,290.923950 179.481094,290.670959
	C170.613022,289.314819 161.807251,290.115112 153.490799,293.593170
	C134.828232,301.398163 128.618240,324.610138 141.462646,340.684692
	C146.568909,347.075104 153.585602,351.967224 159.875687,357.374969
	C165.425842,362.146606 171.477829,366.366394 176.784821,371.383514
	C201.479950,394.729736 195.846588,430.036163 164.864380,443.870667
	C148.810547,451.039215 131.932114,451.622955 115.200844,445.432312
	C103.855011,441.234253 97.902580,432.357422 95.113869,421.072296
	C94.022896,416.657471 96.406136,412.401825 100.318298,410.899658
	C105.097847,409.064453 111.338463,410.694397 113.340706,415.211182
	C115.954727,421.108063 117.950577,427.327759 119.653076,433.561310
	C120.649620,437.210114 122.316391,438.581238 126.084106,438.974792
	C136.155258,440.026703 145.971436,439.915802 155.586807,436.160706
	C177.014954,427.792328 183.512924,403.674530 168.266327,386.420959
	C162.163864,379.515259 154.363800,374.106598 147.315796,368.040497
	C142.399826,363.809418 137.102676,359.958466 132.579269,355.345917
	C119.831696,342.347076 116.397835,326.667725 122.306358,309.725098
	C128.206390,292.806854 141.689224,284.125854 158.880493,281.973450
	C167.126511,280.941040 175.682312,282.382812 184.484924,282.806580
z"/>
<path fill="#0C0C0C" opacity="1.000000" stroke="none"
	d="
M548.363525,359.996277
	C542.804932,386.802887 537.401550,413.235931 531.880615,439.644379
	C531.476135,441.579224 530.516907,444.666504 529.307739,444.935577
	C525.059875,445.880890 520.587158,445.980164 516.208679,445.902100
	C515.804810,445.894897 514.830750,442.215271 515.191956,440.461365
	C518.850525,422.695526 522.734741,404.976196 526.550476,387.242706
	C532.434814,359.895081 538.319519,332.547577 544.184204,305.195801
	C544.485168,303.792236 544.599976,302.348785 544.956787,299.824768
	C532.522339,299.824768 520.630432,299.824768 508.867920,299.824768
	C508.017609,291.908203 508.403931,291.346313 514.762451,290.050568
	C527.492004,287.456482 540.215088,284.830658 552.953430,282.280609
	C560.682068,280.733459 562.948730,283.003387 561.437439,290.507050
	C558.808044,303.561920 556.215027,316.624115 553.636292,329.689087
	C553.398560,330.893280 553.373291,332.139404 553.249390,333.366028
	C553.682007,333.548004 554.114624,333.729980 554.547241,333.911957
	C555.310852,332.662872 556.046997,331.395996 556.842285,330.167480
	C563.974121,319.151276 570.426636,307.606384 578.445312,297.277771
	C586.818787,286.492188 597.967896,279.553619 612.622009,281.446747
	C615.719604,281.846863 618.948181,282.496155 621.719788,283.845367
	C625.390747,285.632294 629.422363,287.724335 628.333618,293.108307
	C627.284180,298.298096 622.658630,302.556183 617.707275,302.950958
	C610.704163,303.509430 604.457642,301.318207 599.140320,296.982758
	C595.796997,294.256775 593.224182,294.456970 590.688354,297.599823
	C582.352356,307.931244 573.443176,317.876221 565.956604,328.794220
	C559.302612,338.498047 554.249512,349.299622 548.363525,359.996277
M553.000000,334.500000
	C553.200012,334.633331 553.399963,334.766663 553.599976,334.899994
	C553.566650,334.600006 553.533325,334.299988 553.000000,334.500000
z"/>
<path fill="#842C58" opacity="1.000000" stroke="none"
	d="
M1375.389160,155.553299
	C1379.487671,145.650345 1386.198730,138.419724 1395.271484,132.329941
	C1392.784790,129.721207 1390.690063,127.459961 1388.526367,125.266762
	C1383.979736,120.658005 1383.964844,120.672699 1390.537964,115.450409
	C1393.686646,119.019424 1396.749512,122.950569 1400.335571,126.325806
	C1401.733154,127.641319 1404.288574,128.160828 1406.351929,128.253052
	C1412.464966,128.526199 1418.604370,128.609329 1424.714355,128.336777
	C1427.075806,128.231430 1429.930664,127.587952 1431.606445,126.108597
	C1435.178833,122.954758 1438.127441,119.094109 1441.685791,115.128357
	C1444.158691,117.437515 1445.680542,118.858673 1447.542480,120.597336
	C1443.463989,124.897026 1439.967529,128.583115 1436.198364,132.556732
	C1444.914673,138.546036 1451.762573,145.602585 1455.966309,155.035522
	C1456.515747,156.268341 1458.841553,156.877594 1460.461548,157.437744
	C1470.013062,160.740616 1480.006226,163.084946 1489.076294,167.385239
	C1502.040649,173.531937 1502.415405,184.916000 1490.412842,192.773987
	C1480.614258,199.188919 1469.329102,201.751953 1457.951294,203.632919
	C1424.195801,209.213409 1390.591553,208.977524 1357.500610,199.548660
	C1350.775635,197.632462 1343.993774,194.432556 1338.440674,190.234009
	C1330.048218,183.888840 1330.620361,174.979080 1339.501221,169.242874
	C1345.283813,165.507874 1351.925293,162.958771 1358.422119,160.517532
	C1363.819702,158.489380 1369.567749,157.394043 1375.389160,155.553299
M1343.753784,175.211594
	C1339.159180,179.524826 1339.111328,181.941772 1344.056519,185.455261
	C1346.742188,187.363419 1349.733398,188.981903 1352.799683,190.190704
	C1368.492310,196.377075 1384.993530,198.299637 1401.686768,199.219330
	C1424.932861,200.500092 1448.023682,199.648560 1470.486938,193.022263
	C1476.903809,191.129379 1482.968750,187.748596 1488.843262,184.427811
	C1492.066040,182.605957 1492.531494,179.279831 1489.340942,176.529892
	C1480.696411,169.079086 1470.143433,166.805664 1459.240967,165.001968
	C1458.847046,172.170883 1458.766479,171.975388 1452.358521,174.614243
	C1429.948120,183.843063 1407.380859,186.306747 1384.407227,176.731613
	C1383.641113,176.412277 1382.825562,176.213058 1382.038818,175.941269
	C1376.831299,174.142456 1370.212524,173.627228 1373.145508,164.412277
	C1362.402832,166.806259 1352.668945,168.750305 1343.753784,175.211594
M1396.044556,172.628754
	C1405.074585,175.118347 1414.167847,177.459549 1423.579956,175.149506
	C1431.168091,173.287155 1438.616699,170.857635 1446.202515,168.984482
	C1450.990356,167.802231 1452.019531,165.277847 1450.086548,161.029739
	C1449.605347,159.971970 1449.311279,158.830734 1448.868896,157.753448
	C1442.979858,143.411316 1428.138916,133.975754 1413.325195,135.143036
	C1397.563477,136.385040 1384.832764,147.286713 1380.985718,162.707733
	C1380.178345,165.943817 1380.541504,168.087769 1384.303833,168.976624
	C1388.021484,169.854935 1391.622681,171.225830 1396.044556,172.628754
z"/>
<path fill="#CE3A86" opacity="1.000000" stroke="none"
	d="
M1194.006958,322.845947
	C1195.378540,316.410217 1196.607910,310.375244 1197.975464,304.371735
	C1198.739502,301.017212 1197.411743,299.802032 1194.142822,299.792023
	C1185.149292,299.764526 1176.151367,299.730621 1167.166992,299.389130
	C1165.477661,299.324890 1162.435303,297.820801 1162.438965,296.991852
	C1162.451416,294.175079 1162.670532,290.995544 1166.774170,290.253510
	C1177.580200,288.299530 1188.339722,286.088379 1199.117432,283.978088
	C1202.874634,283.242432 1206.621338,282.448212 1210.390015,281.777130
	C1215.910034,280.794159 1218.852173,283.610870 1217.703979,288.948151
	C1211.020264,320.014801 1204.229126,351.058380 1197.567627,382.129761
	C1194.883057,394.651398 1192.390381,407.214966 1189.922485,419.781464
	C1189.510498,421.879852 1189.478638,424.103027 1189.609619,426.247894
	C1189.911621,431.200836 1192.547852,434.388611 1197.484863,434.048706
	C1201.926636,433.742859 1207.219482,432.933228 1210.436157,430.282074
	C1217.949829,424.089203 1224.451904,416.666626 1231.332397,409.711273
	C1232.027954,409.008209 1232.510986,408.094818 1232.941528,407.490936
	C1239.934692,410.413055 1240.515747,411.830872 1236.649292,416.917175
	C1229.486694,426.339539 1222.096802,435.573334 1212.040161,442.200409
	C1205.944702,446.217010 1199.475220,448.861145 1191.982300,448.824554
	C1179.119873,448.761658 1171.698608,441.851837 1172.676147,428.934113
	C1173.387329,419.535339 1175.689697,410.232880 1177.605103,400.954010
	C1182.954590,375.037476 1188.471558,349.155457 1194.006958,322.845947
z"/>
<path fill="#CE3986" opacity="1.000000" stroke="none"
	d="
M1403.413208,427.489746
	C1410.036499,420.724182 1416.380859,414.183502 1422.720703,407.647522
	C1428.984863,411.267670 1429.234863,411.860077 1425.118774,417.257782
	C1417.017456,427.881470 1408.574219,438.158752 1396.538330,444.750671
	C1390.787842,447.900146 1384.738403,449.172150 1378.265381,448.733856
	C1367.696167,448.018188 1360.871216,441.605682 1361.520752,430.932617
	C1362.123047,421.035370 1364.306030,411.190735 1366.316162,401.430725
	C1372.934814,369.297485 1379.742432,337.202820 1386.615479,305.122925
	C1387.488159,301.049469 1386.380859,299.702637 1382.273926,299.745422
	C1373.443481,299.837402 1364.606079,299.708679 1355.780884,299.401764
	C1354.160156,299.345367 1352.583496,298.020203 1350.986572,297.280762
	C1352.242676,295.003052 1353.126587,291.086823 1354.812988,290.703674
	C1369.905640,287.274750 1385.119141,284.356750 1400.345093,281.548889
	C1404.692871,280.747131 1407.527954,284.221283 1406.570312,288.661591
	C1399.901733,319.580078 1393.149048,350.480499 1386.511108,381.405518
	C1383.857178,393.769989 1381.353516,406.168060 1378.927124,418.579315
	C1377.937256,423.643127 1376.432129,429.478912 1381.760254,432.736603
	C1387.153320,436.033905 1393.033081,434.672852 1398.256836,431.199432
	C1399.919800,430.093689 1401.510498,428.879242 1403.413208,427.489746
z"/>
<path fill="#CD3684" opacity="1.000000" stroke="none"
	d="
M470.162750,280.885071
	C465.356659,278.871582 460.754486,277.283783 456.567657,274.950623
	C447.521454,269.909576 444.004089,260.939148 447.400421,252.698532
	C450.893341,244.223541 459.201996,240.619186 469.390320,243.143143
	C469.858002,243.258987 470.361328,243.231049 471.157501,243.294891
	C473.820221,237.126663 477.961884,232.325165 485.012817,231.192215
	C497.326447,229.213669 507.227356,239.350998 504.383606,252.218719
	C502.624542,260.178375 498.462402,267.613983 495.311432,275.256989
	C492.179718,282.853302 486.925568,285.799561 478.813080,282.867371
	C476.176544,281.914429 473.314087,281.586548 470.162750,280.885071
z"/>
<path fill="#CE3986" opacity="1.000000" stroke="none"
	d="
M1231.011230,227.006546
	C1224.135010,232.511307 1217.473877,232.979141 1212.198242,228.568619
	C1207.177979,224.371597 1206.017578,217.153000 1209.355713,210.884735
	C1212.812988,204.392807 1219.975098,201.403381 1227.163330,203.451782
	C1232.329224,204.923874 1236.195557,210.653015 1235.226929,216.781525
	C1234.682495,220.226044 1232.637939,223.433456 1231.011230,227.006546
z"/>
<path fill="#88315C" opacity="1.000000" stroke="none"
	d="
M1363.695801,240.486755
	C1366.934937,234.854584 1370.047485,229.564713 1373.031372,224.203171
	C1374.307983,221.909332 1375.718384,221.802277 1377.881836,223.042328
	C1380.109863,224.319351 1381.158936,225.499161 1379.593628,228.103287
	C1375.329712,235.197266 1371.240845,242.396423 1366.781250,250.072769
	C1364.636963,249.010696 1362.694336,248.048477 1360.401245,246.912704
	C1361.600952,244.559174 1362.558960,242.679596 1363.695801,240.486755
z"/>
<path fill="#862F5B" opacity="1.000000" stroke="none"
	d="
M1463.729492,233.115524
	C1466.318604,237.719193 1468.727905,242.003433 1471.372192,246.705627
	C1469.111206,247.984756 1467.327026,248.994171 1465.058472,250.277603
	C1460.491821,242.359268 1456.034668,234.855530 1451.926758,227.165283
	C1451.508667,226.382660 1452.864014,223.890152 1453.991577,223.266068
	C1455.049072,222.680695 1457.616333,222.977829 1458.262451,223.834564
	C1460.337646,226.585739 1461.831421,229.775513 1463.729492,233.115524
z"/>
<path fill="#8C3862" opacity="1.000000" stroke="none"
	d="
M1418.472656,266.523071
	C1413.753296,267.504791 1411.669922,266.345245 1412.006348,261.324921
	C1412.449707,254.707611 1412.166504,248.037720 1412.091553,241.391602
	C1412.063232,238.892044 1412.510620,237.260635 1415.579712,237.257217
	C1418.453735,237.254028 1419.992676,238.102203 1419.855347,241.213928
	C1419.485474,249.593399 1419.191528,257.976227 1418.472656,266.523071
z"/>
</svg>